<svg xmlns="http://www.w3.org/2000/svg" width="1430" height="688" viewBox="0 0 1430 688" role="img" aria-label="Перевозка и обработка отклонений"><defs><marker id="arrow" viewBox="0 0 10 10" refX="9" refY="5" markerWidth="7" markerHeight="7" orient="auto"><path d="M0 0L10 5L0 10Z" fill="#355f50"/></marker></defs><rect width="1430" height="600" fill="white"/><text x="20" y="32" font-family="Arial" font-size="22" font-weight="bold" fill="#173d31">BPMN 2.0 · Перевозка и обработка отклонений</text><rect x="10" y="60" width="1410" height="260" fill="#f1f6f2" stroke="#bdcec3"/><text x="22" y="92" font-family="Arial" font-size="17" font-weight="bold" fill="#285e4c">Диспетчер</text><rect x="10" y="320" width="1410" height="260" fill="white" stroke="#bdcec3"/><text x="22" y="352" font-family="Arial" font-size="17" font-weight="bold" fill="#285e4c">Водитель</text><polyline points="340,140 360,140 360,130 400,130" fill="none" stroke="#205f53" stroke-width="4" marker-end="url(#arrow)"/><polyline points="780,260 840,260" fill="none" stroke="#7c8f86" stroke-width="2" marker-end="url(#arrow)"/><polyline points="1000,260 1020,260 1020,520 1060,520" fill="none" stroke="#7c8f86" stroke-width="2" marker-end="url(#arrow)"/><polyline points="1140,480 1140,300 1090,300 1090,280" fill="none" stroke="#7c8f86" stroke-width="2" marker-end="url(#arrow)"/><polyline points="780,400 840,400" fill="none" stroke="#205f53" stroke-width="4" marker-end="url(#arrow)"/><polyline points="430,160 430,200 700,200 700,220" fill="none" stroke="#7c8f86" stroke-width="2" marker-end="url(#arrow)"/><text x="438" y="184" font-family="Arial" font-size="15" fill="#8a592b">Да</text><polyline points="430,160 430,180 420,180 420,340 700,340 700,360" fill="none" stroke="#205f53" stroke-width="4" marker-end="url(#arrow)"/><text x="438" y="184" font-family="Arial" font-size="15" fill="#8a592b">Нет</text><polyline points="1060,250 1040,250 1040,200 920,200 920,220" fill="none" stroke="#7c8f86" stroke-width="2" marker-end="url(#arrow)"/><text x="1030" y="240" text-anchor="middle" font-family="Arial" font-size="15" fill="#8a592b">Нет</text><polyline points="1120,250 1140,250 1140,70 430,70 430,100" fill="none" stroke="#7c8f86" stroke-width="2" marker-end="url(#arrow)"/><text x="1128" y="240" font-family="Arial" font-size="15" fill="#8a592b">Да</text><rect x="180" y="100" width="160" height="80" rx="10" fill="white" stroke="#2d7058" stroke-width="2"/><text x="260.0" y="136.0" text-anchor="middle" font-family="Arial" font-size="15" fill="#203b30">Контролировать рейс</text><text x="260.0" y="154.0" text-anchor="middle" font-family="Arial" font-size="15" fill="#203b30">и события</text><path d="M430 100l30 30-30 30-30-30Z" fill="#fff8ea" stroke="#a57532" stroke-width="2"/><path d="M420 120l20 20m0-20-20 20" stroke="#a57532" stroke-width="2"/><text x="370" y="88" text-anchor="end" font-family="Arial" font-size="14" fill="#664723">Есть отклонение?</text><rect x="620" y="220" width="160" height="80" rx="10" fill="white" stroke="#2d7058" stroke-width="2"/><text x="700.0" y="256.0" text-anchor="middle" font-family="Arial" font-size="15" fill="#203b30">Создать карточку</text><text x="700.0" y="274.0" text-anchor="middle" font-family="Arial" font-size="15" fill="#203b30">инцидента</text><rect x="840" y="220" width="160" height="80" rx="10" fill="white" stroke="#2d7058" stroke-width="2"/><text x="920.0" y="256.0" text-anchor="middle" font-family="Arial" font-size="15" fill="#203b30">Согласовать решение</text><text x="920.0" y="274.0" text-anchor="middle" font-family="Arial" font-size="15" fill="#203b30">по инциденту</text><rect x="1060" y="480" width="160" height="80" rx="10" fill="white" stroke="#2d7058" stroke-width="2"/><text x="1140.0" y="507.0" text-anchor="middle" font-family="Arial" font-size="15" fill="#203b30">Продолжить рейс по</text><text x="1140.0" y="525.0" text-anchor="middle" font-family="Arial" font-size="15" fill="#203b30">согласованному</text><text x="1140.0" y="543.0" text-anchor="middle" font-family="Arial" font-size="15" fill="#203b30">решению</text><path d="M1090 220l30 30-30 30-30-30Z" fill="#fff8ea" stroke="#a57532" stroke-width="2"/><path d="M1080 240l20 20m0-20-20 20" stroke="#a57532" stroke-width="2"/><text x="1090" y="208" text-anchor="middle" font-family="Arial" font-size="14" fill="#664723">Отклонение устранено?</text><rect x="620" y="360" width="160" height="80" rx="10" fill="white" stroke="#2d7058" stroke-width="2"/><text x="700.0" y="405.0" text-anchor="middle" font-family="Arial" font-size="15" fill="#203b30">Доставить груз</text><rect x="840" y="360" width="160" height="80" rx="10" fill="white" stroke="#2d7058" stroke-width="2"/><text x="920.0" y="387.0" text-anchor="middle" font-family="Arial" font-size="15" fill="#203b30">Получить</text><text x="920.0" y="405.0" text-anchor="middle" font-family="Arial" font-size="15" fill="#203b30">подтверждение</text><text x="920.0" y="423.0" text-anchor="middle" font-family="Arial" font-size="15" fill="#203b30">доставки</text><path d="M1000 400h75" fill="none" stroke="#355f50" stroke-width="2.4" marker-end="url(#arrow)"/><text x="1012" y="388" font-family="Arial" font-size="14" fill="#8a592b">этап 6</text><path d="M135 140h45" fill="none" stroke="#355f50" stroke-width="2.4" marker-end="url(#arrow)"/><text x="20" y="640" font-family="Arial" font-size="15" fill="#466355">Вход: Принять груз и начать рейс</text><text x="20" y="664" font-family="Arial" font-size="15" fill="#466355">Далее: Есть претензия?</text></svg>