<svg xmlns="http://www.w3.org/2000/svg" width="1430" height="664" viewBox="0 0 1430 664" role="img" aria-label="Приём и уточнение заявки"><defs><marker id="arrow" viewBox="0 0 10 10" refX="9" refY="5" markerWidth="7" markerHeight="7" orient="auto"><path d="M0 0L10 5L0 10Z" fill="#355f50"/></marker></defs><rect width="1430" height="600" fill="white"/><text x="20" y="32" font-family="Arial" font-size="22" font-weight="bold" fill="#173d31">BPMN 2.0 · Приём и уточнение заявки</text><rect x="10" y="60" width="1410" height="260" fill="#f1f6f2" stroke="#bdcec3"/><text x="22" y="92" font-family="Arial" font-size="17" font-weight="bold" fill="#285e4c">Клиент</text><rect x="10" y="320" width="1410" height="260" fill="white" stroke="#bdcec3"/><text x="22" y="352" font-family="Arial" font-size="17" font-weight="bold" fill="#285e4c">Менеджер</text><polyline points="240,130 260,130 260,140 400,140" fill="none" stroke="#355f50" stroke-width="2.4" marker-end="url(#arrow)"/><polyline points="560,140 580,140 580,400 620,400" fill="none" stroke="#355f50" stroke-width="2.4" marker-end="url(#arrow)"/><polyline points="780,400 800,400 800,390 840,390" fill="none" stroke="#355f50" stroke-width="2.4" marker-end="url(#arrow)"/><polyline points="1220,520 1240,520 1240,320 1040,320 1040,260 1060,260" fill="none" stroke="#355f50" stroke-width="2.4" marker-end="url(#arrow)"/><polyline points="870,420 870,520 1060,520" fill="none" stroke="#355f50" stroke-width="2.4" marker-end="url(#arrow)"/><text x="878" y="444" font-family="Arial" font-size="15" fill="#8a592b">Нет</text><polyline points="1140,300 1140,330 920,330 920,310 600,310 600,400 620,400" fill="none" stroke="#355f50" stroke-width="2.4" marker-end="url(#arrow)"/><circle cx="210" cy="130" r="28" fill="white" stroke="#2d7058" stroke-width="2"/><text x="210" y="185" text-anchor="middle" font-family="Arial" font-size="14" fill="#203b30">Потребность в перевозке</text><rect x="400" y="100" width="160" height="80" rx="10" fill="white" stroke="#2d7058" stroke-width="2"/><text x="480.0" y="145.0" text-anchor="middle" font-family="Arial" font-size="15" fill="#203b30">Передать заявку</text><rect x="620" y="360" width="160" height="80" rx="10" fill="white" stroke="#2d7058" stroke-width="2"/><text x="700.0" y="396.0" text-anchor="middle" font-family="Arial" font-size="15" fill="#203b30">Зарегистрировать и</text><text x="700.0" y="414.0" text-anchor="middle" font-family="Arial" font-size="15" fill="#203b30">проверить заявку</text><path d="M870 360l30 30-30 30-30-30Z" fill="#fff8ea" stroke="#a57532" stroke-width="2"/><path d="M860 380l20 20m0-20-20 20" stroke="#a57532" stroke-width="2"/><text x="870" y="348" text-anchor="middle" font-family="Arial" font-size="14" fill="#664723">Данные полные?</text><rect x="1060" y="480" width="160" height="80" rx="10" fill="white" stroke="#2d7058" stroke-width="2"/><text x="1140.0" y="516.0" text-anchor="middle" font-family="Arial" font-size="15" fill="#203b30">Запросить</text><text x="1140.0" y="534.0" text-anchor="middle" font-family="Arial" font-size="15" fill="#203b30">недостающие данные</text><rect x="1060" y="220" width="160" height="80" rx="10" fill="white" stroke="#2d7058" stroke-width="2"/><text x="1140.0" y="265.0" text-anchor="middle" font-family="Arial" font-size="15" fill="#203b30">Дополнить заявку</text><path d="M900 390h75" fill="none" stroke="#355f50" stroke-width="2.4" marker-end="url(#arrow)"/><text x="912" y="378" font-family="Arial" font-size="14" fill="#8a592b">Да · этап 2</text><text x="20" y="640" font-family="Arial" font-size="15" fill="#466355">Далее: Проверить возможность перевозки (Да)</text></svg>