<svg xmlns="http://www.w3.org/2000/svg" width="2040" height="840" viewBox="0 0 2040 840" role="img" aria-label="BPMN 2.0: обработка заказа на перевозку"><defs><marker id="arrow" viewBox="0 0 10 10" refX="9" refY="5" markerWidth="7" markerHeight="7" orient="auto-start-reverse"><path d="M0 0L10 5L0 10z" fill="#54736a"/></marker></defs><rect width="100%" height="100%" fill="#f8faf7"/><text x="24" y="35" font-family="Arial" font-size="22" font-weight="700" fill="#183d34">BPMN 2.0 · Обработка заказа на перевозку</text><rect x="12" y="62" width="3936" height="128" fill="#f0f6f1" stroke="#cbdcd0"/><text x="23" y="129" font-family="Arial" font-size="15" font-weight="700" fill="#1f5f4d">Клиент</text><rect x="12" y="190" width="3936" height="128" fill="#fff" stroke="#cbdcd0"/><text x="23" y="257" font-family="Arial" font-size="15" font-weight="700" fill="#1f5f4d">Менеджер</text><rect x="12" y="318" width="3936" height="128" fill="#f0f6f1" stroke="#cbdcd0"/><text x="23" y="385" font-family="Arial" font-size="15" font-weight="700" fill="#1f5f4d">Логист</text><rect x="12" y="446" width="3936" height="128" fill="#fff" stroke="#cbdcd0"/><text x="23" y="513" font-family="Arial" font-size="15" font-weight="700" fill="#1f5f4d">Диспетчер</text><rect x="12" y="574" width="3936" height="128" fill="#f0f6f1" stroke="#cbdcd0"/><text x="23" y="641" font-family="Arial" font-size="15" font-weight="700" fill="#1f5f4d">Водитель</text><rect x="12" y="702" width="3936" height="128" fill="#fff" stroke="#cbdcd0"/><text x="23" y="769" font-family="Arial" font-size="15" font-weight="700" fill="#1f5f4d">Бухгалтер</text><polyline points="128,138.0 190,138.0" fill="none" stroke="#54736a" stroke-width="2.2" marker-end="url(#arrow)"/><polyline points="338,138.0 380,266.0" fill="none" stroke="#54736a" stroke-width="2.2" marker-end="url(#arrow)"/><polyline points="528,266.0 560,266.0" fill="none" stroke="#54736a" stroke-width="2.2" marker-end="url(#arrow)"/><polyline points="616,266.0 700,266.0" fill="none" stroke="#54736a" stroke-width="2.2" marker-end="url(#arrow)"/><text x="621" y="258.0" font-family="Arial" font-size="11" fill="#a35e1e">Нет</text><polyline points="848,266.0 850,138.0" fill="none" stroke="#54736a" stroke-width="2.2" marker-end="url(#arrow)"/><polyline points="998,138.0 1023,138.0 1023,55 355,55 355,266.0 380,266.0" fill="none" stroke="#54736a" stroke-width="2.2" marker-end="url(#arrow)"/><polyline points="616,266.0 1060,394.0" fill="none" stroke="#54736a" stroke-width="2.2" marker-end="url(#arrow)"/><text x="621" y="258.0" font-family="Arial" font-size="11" fill="#a35e1e">Да</text><polyline points="1208,394.0 1250,394.0" fill="none" stroke="#54736a" stroke-width="2.2" marker-end="url(#arrow)"/><polyline points="1306,394.0 1390,394.0" fill="none" stroke="#54736a" stroke-width="2.2" marker-end="url(#arrow)"/><text x="1311" y="386.0" font-family="Arial" font-size="11" fill="#a35e1e">Нет</text><polyline points="1306,394.0 1510,394.0" fill="none" stroke="#54736a" stroke-width="2.2" marker-end="url(#arrow)"/><text x="1311" y="386.0" font-family="Arial" font-size="11" fill="#a35e1e">Да</text><polyline points="1658,394.0 1690,266.0" fill="none" stroke="#54736a" stroke-width="2.2" marker-end="url(#arrow)"/><polyline points="1838,266.0 1860,138.0" fill="none" stroke="#54736a" stroke-width="2.2" marker-end="url(#arrow)"/><polyline points="2008,138.0 2040,138.0" fill="none" stroke="#54736a" stroke-width="2.2" marker-end="url(#arrow)"/><polyline points="2096,138.0 2180,138.0" fill="none" stroke="#54736a" stroke-width="2.2" marker-end="url(#arrow)"/><text x="2101" y="130.0" font-family="Arial" font-size="11" fill="#a35e1e">Нет</text><polyline points="2096,138.0 2198.0,138.0 2198.0,522.0 2300,522.0" fill="none" stroke="#54736a" stroke-width="2.2" marker-end="url(#arrow)"/><text x="2203.0" y="514.0" font-family="Arial" font-size="11" fill="#a35e1e">Да</text><polyline points="2448,522.0 2490,650.0" fill="none" stroke="#54736a" stroke-width="2.2" marker-end="url(#arrow)"/><polyline points="2638,650.0 2680,522.0" fill="none" stroke="#54736a" stroke-width="2.2" marker-end="url(#arrow)"/><polyline points="2828,522.0 2860,522.0" fill="none" stroke="#54736a" stroke-width="2.2" marker-end="url(#arrow)"/><polyline points="2916,522.0 3000,522.0" fill="none" stroke="#54736a" stroke-width="2.2" marker-end="url(#arrow)"/><text x="2921" y="514.0" font-family="Arial" font-size="11" fill="#a35e1e">Да</text><polyline points="3148,522.0 3173,522.0 3173,459 2655,459 2655,522.0 2680,522.0" fill="none" stroke="#54736a" stroke-width="2.2" marker-end="url(#arrow)"/><polyline points="2916,522.0 3180,650.0" fill="none" stroke="#54736a" stroke-width="2.2" marker-end="url(#arrow)"/><text x="2921" y="514.0" font-family="Arial" font-size="11" fill="#a35e1e">Нет</text><polyline points="3328,650.0 3380,778.0" fill="none" stroke="#54736a" stroke-width="2.2" marker-end="url(#arrow)"/><polyline points="3528,778.0 3570,778.0" fill="none" stroke="#54736a" stroke-width="2.2" marker-end="url(#arrow)"/><polyline points="3718,778.0 3740,778.0" fill="none" stroke="#54736a" stroke-width="2.2" marker-end="url(#arrow)"/><circle cx="104.0" cy="138.0" r="22.0" fill="white" stroke="#276b57" stroke-width="2"/><text x="104.0" y="179" text-anchor="middle" font-family="Arial" font-size="11" fill="#33584b">Потребность в перевозке</text><rect x="190" y="104" width="148" height="68" rx="10" fill="#fff" stroke="#2f7a65" stroke-width="2"/><text x="264.0" y="142.0" text-anchor="middle" font-family="Arial" font-size="11.5" fill="#223c32">Передать заявку</text><rect x="380" y="232" width="148" height="68" rx="10" fill="#fff" stroke="#2f7a65" stroke-width="2"/><text x="454.0" y="270.0" text-anchor="middle" font-family="Arial" font-size="11.5" fill="#223c32">Зарегистрировать заявку</text><path d="M588.0 238 L616 266.0 L588.0 294 L560 266.0Z" fill="#fff6e6" stroke="#ab7426" stroke-width="2"/><path d="M579 257l18 18m0-18l-18 18" stroke="#ab7426" stroke-width="2"/><text x="588.0" y="231" text-anchor="middle" font-family="Arial" font-size="12" fill="#744b19">Данные полные?</text><rect x="700" y="232" width="148" height="68" rx="10" fill="#fff" stroke="#2f7a65" stroke-width="2"/><text x="774.0" y="270.0" text-anchor="middle" font-family="Arial" font-size="11.5" fill="#223c32">Запросить уточнение</text><rect x="850" y="104" width="148" height="68" rx="10" fill="#fff" stroke="#2f7a65" stroke-width="2"/><text x="924.0" y="142.0" text-anchor="middle" font-family="Arial" font-size="11.5" fill="#223c32">Дополнить заявку</text><rect x="1060" y="360" width="148" height="68" rx="10" fill="#fff" stroke="#2f7a65" stroke-width="2"/><text x="1134.0" y="398.0" text-anchor="middle" font-family="Arial" font-size="11.5" fill="#223c32">Проверить возможность перевозки</text><path d="M1278.0 366 L1306 394.0 L1278.0 422 L1250 394.0Z" fill="#fff6e6" stroke="#ab7426" stroke-width="2"/><path d="M1269 385l18 18m0-18l-18 18" stroke="#ab7426" stroke-width="2"/><text x="1278.0" y="359" text-anchor="middle" font-family="Arial" font-size="12" fill="#744b19">Перевозка возможна?</text><circle cx="1414.0" cy="394.0" r="22.0" fill="white" stroke="#276b57" stroke-width="3"/><text x="1414.0" y="435" text-anchor="middle" font-family="Arial" font-size="11" fill="#33584b">Мотивированный отказ</text><rect x="1510" y="360" width="148" height="68" rx="10" fill="#fff" stroke="#2f7a65" stroke-width="2"/><text x="1584.0" y="389.5" text-anchor="middle" font-family="Arial" font-size="11.5" fill="#223c32">Рассчитать маршрут,</text><text x="1584.0" y="406.5" text-anchor="middle" font-family="Arial" font-size="11.5" fill="#223c32">срок и цену</text><rect x="1690" y="232" width="148" height="68" rx="10" fill="#fff" stroke="#2f7a65" stroke-width="2"/><text x="1764.0" y="270.0" text-anchor="middle" font-family="Arial" font-size="11.5" fill="#223c32">Передать предложение</text><rect x="1860" y="104" width="148" height="68" rx="10" fill="#fff" stroke="#2f7a65" stroke-width="2"/><text x="1934.0" y="142.0" text-anchor="middle" font-family="Arial" font-size="11.5" fill="#223c32">Согласовать условия</text><path d="M2068.0 110 L2096 138.0 L2068.0 166 L2040 138.0Z" fill="#fff6e6" stroke="#ab7426" stroke-width="2"/><path d="M2059 129l18 18m0-18l-18 18" stroke="#ab7426" stroke-width="2"/><text x="2068.0" y="103" text-anchor="middle" font-family="Arial" font-size="12" fill="#744b19">Условия приняты?</text><circle cx="2204.0" cy="138.0" r="22.0" fill="white" stroke="#276b57" stroke-width="3"/><text x="2204.0" y="179" text-anchor="middle" font-family="Arial" font-size="11" fill="#33584b">Заявка отменена</text><rect x="2300" y="488" width="148" height="68" rx="10" fill="#fff" stroke="#2f7a65" stroke-width="2"/><text x="2374.0" y="517.5" text-anchor="middle" font-family="Arial" font-size="11.5" fill="#223c32">Назначить машину</text><text x="2374.0" y="534.5" text-anchor="middle" font-family="Arial" font-size="11.5" fill="#223c32">и водителя</text><rect x="2490" y="616" width="148" height="68" rx="10" fill="#fff" stroke="#2f7a65" stroke-width="2"/><text x="2564.0" y="645.5" text-anchor="middle" font-family="Arial" font-size="11.5" fill="#223c32">Принять груз</text><text x="2564.0" y="662.5" text-anchor="middle" font-family="Arial" font-size="11.5" fill="#223c32">и начать рейс</text><rect x="2680" y="488" width="148" height="68" rx="10" fill="#fff" stroke="#2f7a65" stroke-width="2"/><text x="2754.0" y="526.0" text-anchor="middle" font-family="Arial" font-size="11.5" fill="#223c32">Контролировать рейс</text><path d="M2888.0 494 L2916 522.0 L2888.0 550 L2860 522.0Z" fill="#fff6e6" stroke="#ab7426" stroke-width="2"/><path d="M2879 513l18 18m0-18l-18 18" stroke="#ab7426" stroke-width="2"/><text x="2888.0" y="487" text-anchor="middle" font-family="Arial" font-size="12" fill="#744b19">Есть отклонение?</text><rect x="3000" y="488" width="148" height="68" rx="10" fill="#fff" stroke="#2f7a65" stroke-width="2"/><text x="3074.0" y="526.0" text-anchor="middle" font-family="Arial" font-size="11.5" fill="#223c32">Урегулировать отклонение</text><rect x="3180" y="616" width="148" height="68" rx="10" fill="#fff" stroke="#2f7a65" stroke-width="2"/><text x="3254.0" y="654.0" text-anchor="middle" font-family="Arial" font-size="11.5" fill="#223c32">Передать груз получателю</text><rect x="3380" y="744" width="148" height="68" rx="10" fill="#fff" stroke="#2f7a65" stroke-width="2"/><text x="3454.0" y="773.5" text-anchor="middle" font-family="Arial" font-size="11.5" fill="#223c32">Проверить документы</text><text x="3454.0" y="790.5" text-anchor="middle" font-family="Arial" font-size="11.5" fill="#223c32">и выставить счёт</text><rect x="3570" y="744" width="148" height="68" rx="10" fill="#fff" stroke="#2f7a65" stroke-width="2"/><text x="3644.0" y="782.0" text-anchor="middle" font-family="Arial" font-size="11.5" fill="#223c32">Закрыть заказ</text><circle cx="3764.0" cy="778.0" r="22.0" fill="white" stroke="#276b57" stroke-width="3"/><text x="3764.0" y="819" text-anchor="middle" font-family="Arial" font-size="11" fill="#33584b">Заказ закрыт</text></svg>